<svg width="510" height="35" viewBox="0 0 510 35" fill="none" xmlns="http://www.w3.org/2000/svg">
<path d="M2.695 27V2.5H8.12V13H9.38L18.27 2.5H21.525L13.195 12.23L18.235 20.035C19.0517 21.2483 19.9033 22.4033 20.79 23.5C21.6767 24.5733 22.3533 25.355 22.82 25.845L23.52 26.58V27H16.975L9.03 15.205H8.12V27H2.695ZM26.7829 24.935C25.1029 23.325 24.2629 21.225 24.2629 18.635C24.2629 16.045 25.1029 13.9567 26.7829 12.37C28.4629 10.76 30.6563 9.955 33.3629 9.955C36.0696 9.955 38.2513 10.76 39.9079 12.37C41.5879 13.9567 42.4279 16.045 42.4279 18.635C42.4279 21.225 41.5879 23.325 39.9079 24.935C38.2279 26.545 36.0463 27.35 33.3629 27.35C30.6563 27.35 28.4629 26.545 26.7829 24.935ZM30.0379 18.635C30.0379 20.8983 30.3413 22.6367 30.9479 23.85C31.5546 25.0633 32.3596 25.67 33.3629 25.67C34.3663 25.67 35.1596 25.0633 35.7429 23.85C36.3496 22.6367 36.6529 20.8983 36.6529 18.635C36.6529 16.395 36.3496 14.6683 35.7429 13.455C35.1596 12.2417 34.3663 11.635 33.3629 11.635C32.3596 11.635 31.5546 12.2417 30.9479 13.455C30.3413 14.6683 30.0379 16.395 30.0379 18.635ZM57.0858 27V19.51H51.3458V27H46.1658V16.5C46.1658 15.3333 46.1075 14.2717 45.9908 13.315C45.8742 12.335 45.7692 11.6583 45.6758 11.285L45.5008 10.725L45.9208 10.305H51.3458V17.34H57.0858V16.5C57.0858 15.3333 57.0625 14.26 57.0158 13.28C56.9692 12.2767 56.9225 11.5767 56.8758 11.18L56.8058 10.585L57.0858 10.305H62.2658V27H57.0858ZM82.3446 13L81.9246 13.42C80.9213 12.72 79.2879 12.37 77.0246 12.37H76.3246V27H71.1446V12.37H70.4796C69.4763 12.37 68.5663 12.4633 67.7496 12.65C66.9329 12.8133 66.3729 12.9767 66.0696 13.14L65.5796 13.42L65.1596 13V10.305H82.3446V13ZM92.5799 9.955C97.4099 9.955 99.8249 11.6117 99.8249 14.925V23.465C99.8249 24.445 100.222 24.935 101.015 24.935C101.178 24.935 101.33 24.9117 101.47 24.865C101.61 24.8183 101.703 24.7833 101.75 24.76L101.855 24.69L102.66 25.495C102.543 25.635 102.38 25.81 102.17 26.02C101.96 26.23 101.47 26.51 100.7 26.86C99.9299 27.1867 99.0899 27.35 98.1799 27.35C96.2666 27.35 95.1233 26.65 94.7499 25.25C93.1399 26.65 91.2266 27.35 89.0099 27.35C87.4933 27.35 86.3383 26.965 85.5449 26.195C84.7516 25.425 84.3549 24.3283 84.3549 22.905C84.3549 21.5283 84.8566 20.4783 85.8599 19.755C86.8866 19.0317 88.8116 18.4717 91.6349 18.075L94.6449 17.69V13.945C94.6449 12.405 93.8983 11.635 92.4049 11.635C91.5883 11.635 90.9466 11.8683 90.4799 12.335C90.0133 12.8017 89.7799 13.455 89.7799 14.295C89.7799 14.5983 89.8033 14.9017 89.8499 15.205C89.8966 15.5083 89.9433 15.73 89.9899 15.87L90.0949 16.08L89.6749 16.5C88.9049 16.5 88.1699 16.465 87.4699 16.395C86.7699 16.325 86.2683 16.255 85.9649 16.185L85.5099 16.08C85.2533 15.66 85.1249 15.1117 85.1249 14.435C85.1249 13.035 85.7666 11.9383 87.0499 11.145C88.3566 10.3517 90.1999 9.955 92.5799 9.955ZM89.7099 22.24C89.7099 23.78 90.4566 24.55 91.9499 24.55C92.4166 24.55 92.8716 24.4683 93.3149 24.305C93.7816 24.1417 94.1199 23.99 94.3299 23.85L94.6449 23.605V19.51L92.2299 19.825C91.3199 19.9417 90.6666 20.1983 90.2699 20.595C89.8966 20.9683 89.7099 21.5167 89.7099 22.24ZM105.126 27V16.5C105.126 15.3333 105.067 14.2717 104.951 13.315C104.834 12.335 104.729 11.6583 104.636 11.285L104.461 10.725L104.881 10.305H110.306V17.235L111.496 17.095L112.371 16.01C113.257 14.9367 113.992 13.9567 114.576 13.07C115.159 12.16 115.509 11.5183 115.626 11.145L115.836 10.585L116.186 10.305H120.316L115.276 16.535L117.166 20.14C117.889 21.33 118.624 22.45 119.371 23.5C120.141 24.55 120.736 25.2967 121.156 25.74L121.751 26.44V27C120.794 27 119.861 27.0233 118.951 27.07C118.064 27.1167 117.411 27.1633 116.991 27.21L116.361 27.315L111.181 19.02H110.306V27H105.126ZM140.006 13L139.586 13.42C138.582 12.72 136.949 12.37 134.686 12.37H133.986V27H128.806V12.37H128.141C127.137 12.37 126.227 12.4633 125.411 12.65C124.594 12.8133 124.034 12.9767 123.731 13.14L123.241 13.42L122.821 13V10.305H140.006V13ZM143.031 27V16.5C143.031 15.3333 142.973 14.2717 142.856 13.315C142.739 12.335 142.634 11.6583 142.541 11.285L142.366 10.725L142.786 10.305H148.211V16.99H151.256C153.379 16.99 155.094 17.4567 156.401 18.39C157.731 19.3 158.396 20.5017 158.396 21.995C158.396 23.4883 157.731 24.7017 156.401 25.635C155.094 26.545 153.379 27 151.256 27H143.031ZM160.496 27V16.5C160.496 15.3333 160.473 14.26 160.426 13.28C160.379 12.2767 160.333 11.5767 160.286 11.18L160.216 10.585L160.496 10.305H165.676V27H160.496ZM150.241 19.16H148.211V24.795H150.241C151.104 24.795 151.793 24.55 152.306 24.06C152.819 23.57 153.076 22.8817 153.076 21.995C153.076 21.1083 152.819 20.42 152.306 19.93C151.793 19.4167 151.104 19.16 150.241 19.16Z" fill="#141B2B"/>
<line x1="185" y1="17" x2="510" y2="17" stroke="#32A0FF"/>
</svg>
