<svg width="45" height="40" viewBox="0 0 45 40" fill="none" xmlns="http://www.w3.org/2000/svg">
<path d="M44.55 0H16.65C16.4025 0 16.2 0.20339 16.2 0.451977V3.61582C16.2 3.86441 16.4025 4.0678 16.65 4.0678H44.55C44.7975 4.0678 45 3.86441 45 3.61582V0.451977C45 0.20339 44.7975 0 44.55 0ZM44.55 23.9548H16.65C16.4025 23.9548 16.2 24.1582 16.2 24.4068V27.5706C16.2 27.8192 16.4025 28.0226 16.65 28.0226H44.55C44.7975 28.0226 45 27.8192 45 27.5706V24.4068C45 24.1582 44.7975 23.9548 44.55 23.9548ZM44.55 35.9322H0.45C0.2025 35.9322 0 36.1356 0 36.3842V39.548C0 39.7966 0.2025 40 0.45 40H44.55C44.7975 40 45 39.7966 45 39.548V36.3842C45 36.1356 44.7975 35.9322 44.55 35.9322ZM44.55 11.9774H0.45C0.2025 11.9774 0 12.1808 0 12.4294V15.5932C0 15.8418 0.2025 16.0452 0.45 16.0452H44.55C44.7975 16.0452 45 15.8418 45 15.5932V12.4294C45 12.1808 44.7975 11.9774 44.55 11.9774Z" fill="black"/>
</svg>
